<?xml version="1.0" encoding="utf-8"?>
<!-- Generator: Adobe Illustrator 23.0.1, SVG Export Plug-In . SVG Version: 6.00 Build 0)  -->
<svg version="1.1" id="Layer_1" xmlns="http://www.w3.org/2000/svg" xmlns:xlink="http://www.w3.org/1999/xlink" x="0px" y="0px"
	 width="150px" height="150px" viewBox="0 0 150 150" style="enable-background:new 0 0 150 150;" xml:space="preserve">
<style type="text/css">
	.st0{fill:none;stroke:#333333;stroke-linecap:round;stroke-linejoin:round;stroke-miterlimit:10;}
</style>
<g>
	<g>
		<g>
			<path class="st0" d="M57.7,68.5c0-2.4,2-4.4,4.4-4.4c2.4,0,4.4,2,4.4,4.4"/>
			<path class="st0" d="M89.5,68.5c0-2.4,2-4.4,4.4-4.4s4.4,2,4.4,4.4"/>
		</g>
		<path class="st0" d="M67.8,85.6c2-3.4,5.7-5.8,10-5.8c4.5,0,8.3,2.6,10.2,6.2"/>
		<path class="st0" d="M54.1,74.8c-0.4,0.7-1.2,0.9-1.8,0.5c-0.7-0.4-0.9-1.2-0.5-1.8c0.4-0.7,2.4-3.1,3.1-2.8
			C55.5,71.1,54.5,74.2,54.1,74.8z"/>
	</g>
	<g>
		<path class="st0" d="M106.2,124.6H43.8c-3,0-5.4-2.4-5.4-5.4V30.8c0-3,2.4-5.4,5.4-5.4h62.4c3,0,5.4,2.4,5.4,5.4v88.4
			C111.6,122.2,109.1,124.6,106.2,124.6z"/>
		<path class="st0" d="M38.2,115.5H13.6c-2.8,0-5.1-2.3-5.1-5.1V39.7c0-2.8,2.3-5.1,5.1-5.1h24.5"/>
		<path class="st0" d="M111.4,34.6h25c2.8,0,5.1,2.3,5.1,5.1v70.7c0,2.8-2.3,5.1-5.1,5.1h-24.7"/>
		<g>
			<line class="st0" x1="20.6" y1="48.4" x2="31.9" y2="48.4"/>
			<line class="st0" x1="15.1" y1="62.1" x2="31.9" y2="62.1"/>
			<line class="st0" x1="15.1" y1="75.7" x2="31.9" y2="75.7"/>
			<line class="st0" x1="22" y1="89.5" x2="31.9" y2="89.5"/>
			<path class="st0" d="M31,102.6H16.3c-1.5,0-2.6-1.2-2.6-2.6l0,0c0-1.5,1.2-2.6,2.6-2.6H31c1.5,0,2.6,1.2,2.6,2.6l0,0
				C33.6,101.4,32.5,102.6,31,102.6z"/>
		</g>
		<line class="st0" x1="116.8" y1="48.4" x2="128.1" y2="48.4"/>
		<line class="st0" x1="116.8" y1="62.1" x2="133.5" y2="62.1"/>
		<line class="st0" x1="116.8" y1="75.7" x2="133.5" y2="75.7"/>
		<line class="st0" x1="116.8" y1="89.5" x2="126.7" y2="89.5"/>
		<path class="st0" d="M134.1,102.6h-14.7c-1.5,0-2.6-1.2-2.6-2.6l0,0c0-1.5,1.2-2.6,2.6-2.6h14.7c1.5,0,2.6,1.2,2.6,2.6l0,0
			C136.8,101.4,135.6,102.6,134.1,102.6z"/>
	</g>
</g>
</svg>
